<svg id="Layer_1" data-name="Layer 1" xmlns="http://www.w3.org/2000/svg" width="1920" height="475" viewBox="0 250 1920 475"><defs><style>.cls-1{fill:#00a4e9;}.cls-2{fill:#272822;}.cls-3{fill:#f93;}</style></defs><title>revYT</title><path class="cls-1" d="M780.71,356.55V300.17a4.73,4.73,0,0,1,4.47-4.26H971.75a4.42,4.42,0,0,1,4.47,4.26v56.38a4.14,4.14,0,0,1-4.47,4.26H785.18A4.38,4.38,0,0,1,780.71,356.55Zm128.85,22V670.63c0,1.9-2,4.27-4.88,4.27H852.25a4.42,4.42,0,0,1-4.47-4.27V378.54Z"/><path class="cls-1" d="M1233.52,300.17V670.63a4.42,4.42,0,0,1-4.47,4.27H1175.8a4.73,4.73,0,0,1-4.47-4.27V533.31H1048.17V670.63a4.42,4.42,0,0,1-4.47,4.27H990.45a4.73,4.73,0,0,1-4.47-4.27V475.05h62.19v.47h123.16V300.17a4.73,4.73,0,0,1,4.47-4.26h53.25A4.42,4.42,0,0,1,1233.52,300.17ZM986,445.56V300.17a4.73,4.73,0,0,1,4.47-4.26h53.25a4.42,4.42,0,0,1,4.47,4.26V445.56Z"/><path class="cls-2" d="M203,299.5l51.68,166.81L306.6,299.5h56.53L281.46,513.88v155.5h-53.3V513.88L146.71,299.5Z"/><path class="cls-2" d="M554.09,602q0,74.22-90,74.44-90,0-90-74.44V368.62q0-74.24,90-74.24t90,74.24Zm-53.3-233.36q0-31.58-36.46-31.57h-.46q-36.47,0-36.45,31.57V602q0,31.78,36.68,31.78T500.79,602Z"/><path class="cls-2" d="M763.49,602q0,74.22-90,74.44-90,0-90-74.44V300.36h53.29V602q0,31.56,36.69,31.57T710.2,602V300.36h53.29Z"/><path class="cls-2" d="M1263.86,300.46h53.3V670.34h-53.3Z"/><path class="cls-2" d="M1354.67,300.46h54.68l77.07,265.79V301.32l48.22-.64V670.34H1480l-74.53-259v259h-50.76Z"/><path class="cls-2" d="M1675.52,485.4l89.76,184.94h-56.76L1624.3,497.13V670.34H1571V300.46h53.3V474.52l84.22-174.06h56.76Z"/><path class="cls-3" d="M151.55,720.44q-75.47-1.07-75.46-82.59V557.92q0-53.81-38.35-56.48V470.53Q76.08,467.88,76.09,413v-77.8q0-82.59,75.46-83.66v34.1q-39.09,1.06-39.08,52.75v78.07q0,55.95-36.88,68.74v1.06q36.87,12,36.88,68.21v77q0,29.56,8.72,42.23t30.36,13.18Z"/><path class="cls-3" d="M1878,501.44q-38.34,2.67-38.35,56.48v79.93q0,81.52-75.22,82.59V686.87q21.39-.52,30.36-13.32t9-42.09v-77q0-56.22,36.63-68.21v-1.06q-36.63-12.79-36.63-68.74V338.38q0-51.67-39.33-52.75v-34.1q75.22,1.07,75.22,83.66V413q0,54.88,38.35,57.54Z"/></svg>